<!-- Created with Inkscape (http://www.inkscape.org/) -->
<svg id="svg2" xmlns:rdf="http://www.w3.org/1999/02/22-rdf-syntax-ns#" xmlns="http://www.w3.org/2000/svg" height="100%" width="100%" version="1.1" xmlns:cc="http://creativecommons.org/ns#" xmlns:dc="http://purl.org/dc/elements/1.1/" viewBox="0 0 4535.4331 2551.1811">
 <metadata id="metadata7">
  <rdf:RDF>
   <cc:Work rdf:about="">
    <dc:format>image/svg+xml</dc:format>
    <dc:type rdf:resource="http://purl.org/dc/dcmitype/StillImage"/>
    <dc:title/>
   </cc:Work>
  </rdf:RDF>
 </metadata>
 <g id="Atlas">
 <g id="layer5" fill-rule="evenodd">
  <path id="brownFill" d="m2267.6 96.627-371.43 394.29 372.86 1067.1 370-1068.6" fill="#403738"/>
  <path id="whiteFill" d="m2267.5 97.744 371.2 391.84-370.6-112.16z" fill="#fff"/>
 </g>
 <g id="layer2">
  <g fill="none" stroke-width="3.5px">
   <path id="brownLine" d="m2267.1 96.895-371.43 394.29 372.86 1067.1 370-1068.6" stroke="#403738"/>
   <path id="whiteLine" d="m2268.5 1557.3-1.5-1460.3 371.7 393.38-371.4-112.29-371.4 113.27 371.5 68.81 370.8-69.97" stroke="#fff"/>
   <path id="redLine" d="m2267.6 378.01 181.2 55.121s42.22 239.25-181.78 239.25" stroke="#e87071"/>
  </g>
  <path id="redFill" d="m2268.1 376.93 181.2 55.121s42.22 239.25-181.78 239.25" fill-rule="evenodd" fill="#e87071"/>
 </g>
 </g>
 <g id="layer9" stroke="#FFFFFF" fill="none">
  <g stroke-width="8px">
   <path id="m" d="m1442.6 1813.5 46.911-218.14 92.65 216.97 90.304-218.14 46.911 221.66"/>
   <path id="a" d="m1883.6 1812.3 96.168-221.66 96.168 222.83"/>
   <path id="n2" d="m2237.8 1813.5v-220.48l215.21 215.21v-223.42"/>
   <path id="apostrophe" d="m2611.9 1655.2v-70.367"/>
   <path id="n1" d="m538.41 1814.7v-224l218.14 218.14v-222.83"/>
  <ellipse id="o" rx="129.01" ry="118.45" cy="1702.1" cx="1029.8"/>
</g>
  <g stroke-width="8px">
   <path id="s1" d="m2884.7 1612.4s-71.32-52.01-99.929-0.4146c-26.912 48.534 42.206 79.362 83.343 100.76 25.522 13.274 46.686 49.884 14.927 85.002 0 0-18.244 23.22-46.025 21.561"/>
   <path id="s2" d="m3319.8 1613.4s-71.32-52.01-99.929-0.4146c-26.912 48.534 42.206 79.362 83.343 100.76 25.522 13.274 46.686 49.884 14.927 85.002 0 0-18.244 23.22-46.025 21.561"/>
   <path id="k" d="m3496.6 1590.1v230.45-117.28h15.246l117.86-110.24-117.72 110.1 126.51 116.25"/>
   <path id="y" d="m3787.5 1591.3 78.577 123.73v106.14-105.99l83.38-124.75"/>
  </g>
 </g>
</svg>
