<!-- Created with Inkscape (http://www.inkscape.org/) -->
<svg id="CSS3_Icon" xmlns:rdf="http://www.w3.org/1999/02/22-rdf-syntax-ns#" xmlns="http://www.w3.org/2000/svg" height="100%" width="100%" version="1.1" xmlns:cc="http://creativecommons.org/ns#" xmlns:dc="http://purl.org/dc/elements/1.1/" viewBox="0 0 400 400.00001">
 <metadata id="metadata4198">
  <rdf:RDF>
   <cc:Work rdf:about="">
    <dc:format>image/svg+xml</dc:format>
    <dc:type rdf:resource="http://purl.org/dc/dcmitype/StillImage"/>
    <dc:title/>
   </cc:Work>
  </rdf:RDF>
 </metadata>
 <g transform="translate(0 -652.36)" stroke-width="1px">
  <path id="path4603" d="m342.76 704.4h-279.81l25.001 285.62 114.65 32.577 115.16-31.567z" stroke="#1471b6" fill="none"/>
  <path id="path4613" d="m342.76 704.4h-279.81l25.001 285.62 114.65 32.577 115.16-31.567z" fill-rule="evenodd" fill="#1471b6"/>
  <path id="path4606" d="m317.68 727.26h-115.18l0.17857 33.036 88.393 0.17857-15.714 179.11-72.321 20.357v37.857l93.214-25.357z" stroke="#34aadc" fill="none"/>
  <path id="path4617" d="m317.68 727.26h-115.18l0.17857 33.036 88.393 0.17857-15.714 179.11-72.321 20.357v37.857l93.214-25.357z" fill-rule="evenodd" fill="#34aadc"/>
  <path id="path4609" d="m114.83 760.3h175.71l-15.714 178.39-72.5 20.714-71.429-19.821-5-55.179h35l2.8571 27.679 39.107 10.893 39.286-10.536 4.1071-46.25-82.321 0.71429-3.0357-35.357 88.393-0.35714 3.0357-35.536-134.46 0.17857z" stroke="#fff" fill="none"/>
  <path id="path4621" d="m114.83 760.3h175.71l-15.714 178.39-72.5 20.714-71.429-19.821-5-55.179h35l2.8571 27.679 39.107 10.893 39.286-10.536 4.1071-46.25-82.321 0.71429-3.0357-35.357 88.393-0.35714 3.0357-35.536-134.46 0.17857z" fill-rule="evenodd" fill="#fff"/>
 </g>
</svg>
